<mxfile host="app.diagrams.net" agent="Mozilla/5.0 (Windows NT 10.0; Win64; x64) AppleWebKit/537.36 (KHTML, like Gecko) Chrome/130.0.0.0 Safari/537.36 Edg/130.0.0.0" version="24.8.3" pages="3">
  <diagram id="C5RBs43oDa-KdzZeNtuy" name="Exercise 2">
    <mxGraphModel dx="1139" dy="435" grid="1" gridSize="10" guides="1" tooltips="1" connect="1" arrows="1" fold="1" page="1" pageScale="1" pageWidth="827" pageHeight="1169" math="0" shadow="0">
      <root>
        <mxCell id="WIyWlLk6GJQsqaUBKTNV-0" />
        <mxCell id="WIyWlLk6GJQsqaUBKTNV-1" parent="WIyWlLk6GJQsqaUBKTNV-0" />
        <mxCell id="Tl7vtaE5IvOnIMBjxS5H-2" value="start" style="ellipse;whiteSpace=wrap;html=1;" vertex="1" parent="WIyWlLk6GJQsqaUBKTNV-1">
          <mxGeometry x="120" width="160" height="80" as="geometry" />
        </mxCell>
        <mxCell id="Tl7vtaE5IvOnIMBjxS5H-3" value="input priceOfRent" style="shape=parallelogram;perimeter=parallelogramPerimeter;whiteSpace=wrap;html=1;fixedSize=1;" vertex="1" parent="WIyWlLk6GJQsqaUBKTNV-1">
          <mxGeometry x="120" y="160" width="160" height="80" as="geometry" />
        </mxCell>
        <mxCell id="Tl7vtaE5IvOnIMBjxS5H-6" value="input numberOfDaysInMonth" style="shape=parallelogram;perimeter=parallelogramPerimeter;whiteSpace=wrap;html=1;fixedSize=1;" vertex="1" parent="WIyWlLk6GJQsqaUBKTNV-1">
          <mxGeometry x="100" y="320" width="180" height="80" as="geometry" />
        </mxCell>
        <mxCell id="Tl7vtaE5IvOnIMBjxS5H-11" value="rent perDay&amp;nbsp; =&amp;nbsp; priceOfRent&amp;nbsp; /&amp;nbsp; numberOfDaysInMonth" style="rounded=0;whiteSpace=wrap;html=1;" vertex="1" parent="WIyWlLk6GJQsqaUBKTNV-1">
          <mxGeometry x="100" y="480" width="180" height="80" as="geometry" />
        </mxCell>
        <mxCell id="Tl7vtaE5IvOnIMBjxS5H-12" value="rentPerDay" style="shape=parallelogram;perimeter=parallelogramPerimeter;whiteSpace=wrap;html=1;fixedSize=1;" vertex="1" parent="WIyWlLk6GJQsqaUBKTNV-1">
          <mxGeometry x="100" y="640" width="180" height="80" as="geometry" />
        </mxCell>
        <mxCell id="Tl7vtaE5IvOnIMBjxS5H-13" value="stop" style="ellipse;whiteSpace=wrap;html=1;" vertex="1" parent="WIyWlLk6GJQsqaUBKTNV-1">
          <mxGeometry x="120" y="800" width="160" height="80" as="geometry" />
        </mxCell>
        <mxCell id="Tl7vtaE5IvOnIMBjxS5H-21" value="" style="endArrow=classic;html=1;rounded=0;" edge="1" parent="WIyWlLk6GJQsqaUBKTNV-1">
          <mxGeometry width="50" height="50" relative="1" as="geometry">
            <mxPoint x="199.5" y="240" as="sourcePoint" />
            <mxPoint x="199.5" y="320" as="targetPoint" />
          </mxGeometry>
        </mxCell>
        <mxCell id="Tl7vtaE5IvOnIMBjxS5H-22" value="" style="endArrow=classic;html=1;rounded=0;entryX=0.494;entryY=-0.075;entryDx=0;entryDy=0;entryPerimeter=0;" edge="1" parent="WIyWlLk6GJQsqaUBKTNV-1" target="Tl7vtaE5IvOnIMBjxS5H-3">
          <mxGeometry width="50" height="50" relative="1" as="geometry">
            <mxPoint x="199.5" y="90" as="sourcePoint" />
            <mxPoint x="199.5" y="150" as="targetPoint" />
            <Array as="points">
              <mxPoint x="199.5" y="80" />
            </Array>
          </mxGeometry>
        </mxCell>
        <mxCell id="Tl7vtaE5IvOnIMBjxS5H-23" value="" style="endArrow=classic;html=1;rounded=0;" edge="1" parent="WIyWlLk6GJQsqaUBKTNV-1">
          <mxGeometry width="50" height="50" relative="1" as="geometry">
            <mxPoint x="199.5" y="400" as="sourcePoint" />
            <mxPoint x="199.5" y="480" as="targetPoint" />
          </mxGeometry>
        </mxCell>
        <mxCell id="Tl7vtaE5IvOnIMBjxS5H-25" value="" style="endArrow=classic;html=1;rounded=0;" edge="1" parent="WIyWlLk6GJQsqaUBKTNV-1">
          <mxGeometry width="50" height="50" relative="1" as="geometry">
            <mxPoint x="199.5" y="560" as="sourcePoint" />
            <mxPoint x="199.5" y="640" as="targetPoint" />
          </mxGeometry>
        </mxCell>
        <mxCell id="Tl7vtaE5IvOnIMBjxS5H-26" value="" style="endArrow=classic;html=1;rounded=0;" edge="1" parent="WIyWlLk6GJQsqaUBKTNV-1">
          <mxGeometry width="50" height="50" relative="1" as="geometry">
            <mxPoint x="199.5" y="720" as="sourcePoint" />
            <mxPoint x="199.5" y="800" as="targetPoint" />
          </mxGeometry>
        </mxCell>
      </root>
    </mxGraphModel>
  </diagram>
  <diagram id="SUbGsbTUZXQVY5uGHFpq" name="Exercise 1">
    <mxGraphModel dx="1139" dy="435" grid="1" gridSize="10" guides="1" tooltips="1" connect="1" arrows="1" fold="1" page="1" pageScale="1" pageWidth="850" pageHeight="1100" math="0" shadow="0">
      <root>
        <mxCell id="0" />
        <mxCell id="1" parent="0" />
        <mxCell id="4BXoDXR3qFoVmcplvuB8-1" value="start" style="ellipse;whiteSpace=wrap;html=1;" vertex="1" parent="1">
          <mxGeometry x="130" y="80" width="140" height="80" as="geometry" />
        </mxCell>
        <mxCell id="4BXoDXR3qFoVmcplvuB8-2" value="milesTraveled" style="shape=parallelogram;perimeter=parallelogramPerimeter;whiteSpace=wrap;html=1;fixedSize=1;" vertex="1" parent="1">
          <mxGeometry x="120" y="240" width="160" height="80" as="geometry" />
        </mxCell>
        <mxCell id="4BXoDXR3qFoVmcplvuB8-3" value="gallonsOfGasUsed" style="shape=parallelogram;perimeter=parallelogramPerimeter;whiteSpace=wrap;html=1;fixedSize=1;" vertex="1" parent="1">
          <mxGeometry x="120" y="400" width="160" height="80" as="geometry" />
        </mxCell>
        <mxCell id="4BXoDXR3qFoVmcplvuB8-5" value="milesPerGallon&amp;nbsp; =&amp;nbsp; milesTraveled&amp;nbsp; /&amp;nbsp; gallonsOfGasUsed" style="rounded=0;whiteSpace=wrap;html=1;" vertex="1" parent="1">
          <mxGeometry x="120" y="560" width="160" height="80" as="geometry" />
        </mxCell>
        <mxCell id="4BXoDXR3qFoVmcplvuB8-6" value="miles perGallon" style="shape=parallelogram;perimeter=parallelogramPerimeter;whiteSpace=wrap;html=1;fixedSize=1;" vertex="1" parent="1">
          <mxGeometry x="120" y="720" width="160" height="80" as="geometry" />
        </mxCell>
        <mxCell id="4BXoDXR3qFoVmcplvuB8-7" value="stop" style="ellipse;whiteSpace=wrap;html=1;" vertex="1" parent="1">
          <mxGeometry x="120" y="880" width="160" height="80" as="geometry" />
        </mxCell>
        <mxCell id="4BXoDXR3qFoVmcplvuB8-8" value="" style="endArrow=classic;html=1;rounded=0;" edge="1" parent="1">
          <mxGeometry width="50" height="50" relative="1" as="geometry">
            <mxPoint x="199.5" y="160" as="sourcePoint" />
            <mxPoint x="199.5" y="240" as="targetPoint" />
            <Array as="points">
              <mxPoint x="199.5" y="200" />
            </Array>
          </mxGeometry>
        </mxCell>
        <mxCell id="4BXoDXR3qFoVmcplvuB8-9" value="" style="endArrow=classic;html=1;rounded=0;" edge="1" parent="1">
          <mxGeometry width="50" height="50" relative="1" as="geometry">
            <mxPoint x="199.5" y="480" as="sourcePoint" />
            <mxPoint x="199.5" y="560" as="targetPoint" />
          </mxGeometry>
        </mxCell>
        <mxCell id="4BXoDXR3qFoVmcplvuB8-10" value="" style="endArrow=classic;html=1;rounded=0;" edge="1" parent="1">
          <mxGeometry width="50" height="50" relative="1" as="geometry">
            <mxPoint x="199.5" y="320" as="sourcePoint" />
            <mxPoint x="199.5" y="390" as="targetPoint" />
          </mxGeometry>
        </mxCell>
        <mxCell id="4BXoDXR3qFoVmcplvuB8-11" value="" style="endArrow=classic;html=1;rounded=0;" edge="1" parent="1">
          <mxGeometry width="50" height="50" relative="1" as="geometry">
            <mxPoint x="199.5" y="640" as="sourcePoint" />
            <mxPoint x="199.5" y="710" as="targetPoint" />
          </mxGeometry>
        </mxCell>
        <mxCell id="4BXoDXR3qFoVmcplvuB8-12" value="" style="endArrow=classic;html=1;rounded=0;" edge="1" parent="1">
          <mxGeometry width="50" height="50" relative="1" as="geometry">
            <mxPoint x="199.5" y="800" as="sourcePoint" />
            <mxPoint x="199.5" y="870" as="targetPoint" />
          </mxGeometry>
        </mxCell>
      </root>
    </mxGraphModel>
  </diagram>
  <diagram id="pujOamMa4KayCkIlOva7" name="Exercise 3">
    <mxGraphModel dx="1898" dy="725" grid="1" gridSize="10" guides="1" tooltips="1" connect="1" arrows="1" fold="1" page="1" pageScale="1" pageWidth="850" pageHeight="1100" math="0" shadow="0">
      <root>
        <mxCell id="0" />
        <mxCell id="1" parent="0" />
        <mxCell id="NND6b3UZuQ-moUdCYKOY-1" value="start" style="ellipse;whiteSpace=wrap;html=1;" vertex="1" parent="1">
          <mxGeometry x="160" width="160" height="80" as="geometry" />
        </mxCell>
        <mxCell id="NND6b3UZuQ-moUdCYKOY-2" value="input monthlyPay" style="shape=parallelogram;perimeter=parallelogramPerimeter;whiteSpace=wrap;html=1;fixedSize=1;" vertex="1" parent="1">
          <mxGeometry x="140" y="160" width="180" height="80" as="geometry" />
        </mxCell>
        <mxCell id="NND6b3UZuQ-moUdCYKOY-3" value="input monthlyRent" style="shape=parallelogram;perimeter=parallelogramPerimeter;whiteSpace=wrap;html=1;fixedSize=1;" vertex="1" parent="1">
          <mxGeometry x="340" y="160" width="180" height="80" as="geometry" />
        </mxCell>
        <mxCell id="NND6b3UZuQ-moUdCYKOY-4" value="input monthlyUtilitites" style="shape=parallelogram;perimeter=parallelogramPerimeter;whiteSpace=wrap;html=1;fixedSize=1;" vertex="1" parent="1">
          <mxGeometry x="540" y="160" width="180" height="80" as="geometry" />
        </mxCell>
        <mxCell id="NND6b3UZuQ-moUdCYKOY-5" value="input monthlyGroceries" style="shape=parallelogram;perimeter=parallelogramPerimeter;whiteSpace=wrap;html=1;fixedSize=1;" vertex="1" parent="1">
          <mxGeometry x="360" y="280" width="180" height="80" as="geometry" />
        </mxCell>
        <mxCell id="NND6b3UZuQ-moUdCYKOY-6" value="remainingDiscretionaryMoney&amp;nbsp; =&amp;nbsp; monthlyPay&amp;nbsp; -&amp;nbsp; monthlyRent&amp;nbsp; +&amp;nbsp; monthlyUtilities&amp;nbsp; +&amp;nbsp; monthlyGroceries" style="rounded=0;whiteSpace=wrap;html=1;" vertex="1" parent="1">
          <mxGeometry x="120" y="360" width="200" height="80" as="geometry" />
        </mxCell>
        <mxCell id="NND6b3UZuQ-moUdCYKOY-7" value="monthlyPay" style="shape=parallelogram;perimeter=parallelogramPerimeter;whiteSpace=wrap;html=1;fixedSize=1;" vertex="1" parent="1">
          <mxGeometry x="140" y="520" width="180" height="80" as="geometry" />
        </mxCell>
        <mxCell id="NND6b3UZuQ-moUdCYKOY-8" value="monthlyRent&amp;nbsp; +&amp;nbsp; monthlyUtilities&amp;nbsp; +&amp;nbsp; monthlyGroceries" style="shape=parallelogram;perimeter=parallelogramPerimeter;whiteSpace=wrap;html=1;fixedSize=1;" vertex="1" parent="1">
          <mxGeometry x="110" y="680" width="210" height="80" as="geometry" />
        </mxCell>
        <mxCell id="NND6b3UZuQ-moUdCYKOY-9" value="remainingDiscretionaryMoney" style="shape=parallelogram;perimeter=parallelogramPerimeter;whiteSpace=wrap;html=1;fixedSize=1;" vertex="1" parent="1">
          <mxGeometry x="120" y="840" width="200" height="80" as="geometry" />
        </mxCell>
        <mxCell id="NND6b3UZuQ-moUdCYKOY-10" value="stop" style="ellipse;whiteSpace=wrap;html=1;" vertex="1" parent="1">
          <mxGeometry x="160" y="1000" width="160" height="80" as="geometry" />
        </mxCell>
        <mxCell id="NND6b3UZuQ-moUdCYKOY-11" value="" style="endArrow=classic;html=1;rounded=0;" edge="1" parent="1">
          <mxGeometry width="50" height="50" relative="1" as="geometry">
            <mxPoint x="239.17000000000002" y="80" as="sourcePoint" />
            <mxPoint x="239.17000000000002" y="160" as="targetPoint" />
          </mxGeometry>
        </mxCell>
        <mxCell id="NND6b3UZuQ-moUdCYKOY-12" value="" style="endArrow=classic;html=1;rounded=0;" edge="1" parent="1">
          <mxGeometry width="50" height="50" relative="1" as="geometry">
            <mxPoint x="310" y="199.17" as="sourcePoint" />
            <mxPoint x="350" y="199.17" as="targetPoint" />
          </mxGeometry>
        </mxCell>
        <mxCell id="NND6b3UZuQ-moUdCYKOY-13" value="" style="endArrow=classic;html=1;rounded=0;" edge="1" parent="1">
          <mxGeometry width="50" height="50" relative="1" as="geometry">
            <mxPoint x="510" y="199.17" as="sourcePoint" />
            <mxPoint x="550" y="199.34" as="targetPoint" />
          </mxGeometry>
        </mxCell>
        <mxCell id="NND6b3UZuQ-moUdCYKOY-21" value="" style="endArrow=classic;html=1;rounded=0;" edge="1" parent="1">
          <mxGeometry width="50" height="50" relative="1" as="geometry">
            <mxPoint x="640" y="320" as="sourcePoint" />
            <mxPoint x="540" y="320" as="targetPoint" />
            <Array as="points">
              <mxPoint x="540" y="320" />
            </Array>
          </mxGeometry>
        </mxCell>
        <mxCell id="NND6b3UZuQ-moUdCYKOY-27" value="" style="endArrow=none;html=1;rounded=0;entryX=-0.007;entryY=0.521;entryDx=0;entryDy=0;entryPerimeter=0;" edge="1" parent="1" target="NND6b3UZuQ-moUdCYKOY-5">
          <mxGeometry width="50" height="50" relative="1" as="geometry">
            <mxPoint x="240" y="320" as="sourcePoint" />
            <mxPoint x="310" y="280" as="targetPoint" />
            <Array as="points" />
          </mxGeometry>
        </mxCell>
        <mxCell id="NND6b3UZuQ-moUdCYKOY-29" value="" style="endArrow=classic;html=1;rounded=0;" edge="1" parent="1">
          <mxGeometry width="50" height="50" relative="1" as="geometry">
            <mxPoint x="239.17000000000002" y="320" as="sourcePoint" />
            <mxPoint x="239.17000000000002" y="360" as="targetPoint" />
          </mxGeometry>
        </mxCell>
        <mxCell id="NND6b3UZuQ-moUdCYKOY-31" value="" style="endArrow=none;html=1;rounded=0;" edge="1" parent="1">
          <mxGeometry width="50" height="50" relative="1" as="geometry">
            <mxPoint x="640" y="320" as="sourcePoint" />
            <mxPoint x="640" y="240" as="targetPoint" />
          </mxGeometry>
        </mxCell>
        <mxCell id="NND6b3UZuQ-moUdCYKOY-33" value="" style="endArrow=classic;html=1;rounded=0;" edge="1" parent="1">
          <mxGeometry width="50" height="50" relative="1" as="geometry">
            <mxPoint x="239.17000000000002" y="440" as="sourcePoint" />
            <mxPoint x="239.17000000000002" y="510" as="targetPoint" />
          </mxGeometry>
        </mxCell>
        <mxCell id="NND6b3UZuQ-moUdCYKOY-34" value="" style="endArrow=classic;html=1;rounded=0;" edge="1" parent="1">
          <mxGeometry width="50" height="50" relative="1" as="geometry">
            <mxPoint x="239.17000000000002" y="920" as="sourcePoint" />
            <mxPoint x="239.17000000000002" y="1000" as="targetPoint" />
            <Array as="points">
              <mxPoint x="239.17000000000002" y="970" />
            </Array>
          </mxGeometry>
        </mxCell>
        <mxCell id="NND6b3UZuQ-moUdCYKOY-35" value="" style="endArrow=classic;html=1;rounded=0;" edge="1" parent="1">
          <mxGeometry width="50" height="50" relative="1" as="geometry">
            <mxPoint x="239.17000000000002" y="760" as="sourcePoint" />
            <mxPoint x="239.17000000000002" y="840" as="targetPoint" />
          </mxGeometry>
        </mxCell>
        <mxCell id="NND6b3UZuQ-moUdCYKOY-36" value="" style="endArrow=classic;html=1;rounded=0;" edge="1" parent="1">
          <mxGeometry width="50" height="50" relative="1" as="geometry">
            <mxPoint x="239.17000000000002" y="600" as="sourcePoint" />
            <mxPoint x="239.17000000000002" y="680" as="targetPoint" />
          </mxGeometry>
        </mxCell>
      </root>
    </mxGraphModel>
  </diagram>
</mxfile>
